<svg width="34" height="19" viewBox="0 0 34 19" fill="none" xmlns="http://www.w3.org/2000/svg">
<path d="M20 5.05257C20 2.26211 17.7381 -7.60048e-06 14.9476 -7.60874e-06C9.44472 -7.62505e-06 1.36907 -7.64354e-06 1 -7.61298e-06V-7.61298e-06C0.447715 -7.56724e-06 0 0.447708 0 0.999992V12.5V18C0 18.5523 0.447715 19 1 19V19L34 19L27.3048 16.1306C26.1084 15.6179 25.5102 15.3615 24.9918 15.0615C22.2695 13.4864 20.4469 10.7224 20.0715 7.59974C20 7.00503 20 6.35421 20 5.05257V5.05257Z" fill="currentColor"/>
</svg>
