<svg width="34" height="19" viewBox="0 0 34 19" fill="none" xmlns="http://www.w3.org/2000/svg">
<path fillRule="evenodd" clipRule="evenodd" d="M14 5.05258C14 2.26212 16.2619 2.89187e-08 19.0524 2.065e-08C24.5553 4.34375e-09 32.6309 -1.41498e-08 33 1.64175e-08V1.64175e-08C33.5523 6.21589e-08 34 0.447715 34 1V12.5V18C34 18.5523 33.5523 19 33 19V19L0 19L6.69516 16.1306C7.89156 15.6179 8.48976 15.3615 9.00822 15.0615C11.7305 13.4864 13.5531 10.7224 13.9285 7.59974C14 7.00503 14 6.35422 14 5.05258V5.05258Z" fill="currentColor"/>
</svg>
