<svg width="64" height="51" viewBox="0 0 64 51" fill="none" xmlns="http://www.w3.org/2000/svg">
<path fill-rule="evenodd" clip-rule="evenodd" d="M23 6C23 2.68629 20.3137 0 17 0H11.5C10.1068 0 9.41027 0 8.82463 0.0693154C4.23308 0.612761 0.612761 4.23308 0.0693154 8.82463C0 9.41027 0 10.1068 0 11.5V31C0 40.4281 0 45.1421 2.92893 48.0711C5.85786 51 10.5719 51 20 51H44.5C53.4426 51 57.9139 51 60.788 48.3432C60.9803 48.1655 61.1655 47.9803 61.3432 47.788C64 44.9139 64 40.4426 64 31.5C64 22.5574 64 18.0861 61.3432 15.212C61.1655 15.0197 60.9803 14.8345 60.788 14.6568C57.9139 12 53.4426 12 44.5 12H29C25.6863 12 23 9.31371 23 6Z" fill="#D9D9D9"/>
</svg>
